<mxfile host="app.diagrams.net" modified="2022-09-25T23:06:03.058Z" agent="5.0 (Windows NT 10.0; Win64; x64) AppleWebKit/537.36 (KHTML, like Gecko) Chrome/105.0.0.0 Safari/537.36" etag="CPqDiOngrh8VjgHi-crn" version="20.3.6" type="github">
  <diagram id="NO0MrUpebZ2SBpMLK5WK" name="Page-1">
    <mxGraphModel dx="1025" dy="659" grid="1" gridSize="10" guides="1" tooltips="1" connect="1" arrows="1" fold="1" page="1" pageScale="1" pageWidth="1169" pageHeight="827" math="0" shadow="0">
      <root>
        <mxCell id="0" />
        <mxCell id="1" parent="0" />
        <mxCell id="-zpiWiMWNnFgHcxVn4J2-24" style="edgeStyle=orthogonalEdgeStyle;rounded=0;orthogonalLoop=1;jettySize=auto;html=1;exitX=0.5;exitY=0;exitDx=0;exitDy=0;fontFamily=Times New Roman;fontSize=11;endArrow=classicThin;endFill=1;entryX=0.5;entryY=0;entryDx=0;entryDy=0;startArrow=none;startFill=0;" edge="1" parent="1" source="-zpiWiMWNnFgHcxVn4J2-1" target="-zpiWiMWNnFgHcxVn4J2-18">
          <mxGeometry relative="1" as="geometry">
            <mxPoint x="900" y="14" as="targetPoint" />
            <Array as="points">
              <mxPoint x="25" y="39" />
              <mxPoint x="880" y="39" />
            </Array>
          </mxGeometry>
        </mxCell>
        <mxCell id="-zpiWiMWNnFgHcxVn4J2-323" style="edgeStyle=orthogonalEdgeStyle;rounded=0;orthogonalLoop=1;jettySize=auto;html=1;exitX=0.5;exitY=1;exitDx=0;exitDy=0;entryX=0.5;entryY=1;entryDx=0;entryDy=0;fontFamily=Times New Roman;fontSize=11;startArrow=none;startFill=0;endArrow=classicThin;endFill=1;" edge="1" parent="1" source="-zpiWiMWNnFgHcxVn4J2-1" target="-zpiWiMWNnFgHcxVn4J2-18">
          <mxGeometry relative="1" as="geometry">
            <Array as="points">
              <mxPoint x="25" y="119" />
              <mxPoint x="880" y="119" />
            </Array>
          </mxGeometry>
        </mxCell>
        <mxCell id="-zpiWiMWNnFgHcxVn4J2-1" value="&lt;font style=&quot;font-size: 11px;&quot; face=&quot;Times New Roman&quot;&gt;&lt;u&gt;Order#&lt;/u&gt;&lt;/font&gt;" style="rounded=0;whiteSpace=wrap;html=1;" vertex="1" parent="1">
          <mxGeometry y="64" width="50" height="20" as="geometry" />
        </mxCell>
        <mxCell id="-zpiWiMWNnFgHcxVn4J2-62" style="edgeStyle=orthogonalEdgeStyle;rounded=0;orthogonalLoop=1;jettySize=auto;html=1;exitX=0.5;exitY=0;exitDx=0;exitDy=0;fontFamily=Times New Roman;fontSize=11;endArrow=none;endFill=0;startArrow=classicThin;startFill=1;" edge="1" parent="1" source="-zpiWiMWNnFgHcxVn4J2-3">
          <mxGeometry relative="1" as="geometry">
            <mxPoint x="85.28571428571428" y="39" as="targetPoint" />
          </mxGeometry>
        </mxCell>
        <mxCell id="-zpiWiMWNnFgHcxVn4J2-324" style="edgeStyle=orthogonalEdgeStyle;rounded=0;orthogonalLoop=1;jettySize=auto;html=1;exitX=0.5;exitY=1;exitDx=0;exitDy=0;fontFamily=Times New Roman;fontSize=11;startArrow=classicThin;startFill=1;endArrow=none;endFill=0;" edge="1" parent="1" source="-zpiWiMWNnFgHcxVn4J2-3">
          <mxGeometry relative="1" as="geometry">
            <mxPoint x="85.125" y="119" as="targetPoint" />
          </mxGeometry>
        </mxCell>
        <mxCell id="-zpiWiMWNnFgHcxVn4J2-3" value="&lt;font style=&quot;font-size: 11px;&quot; face=&quot;Times New Roman&quot;&gt;Order_Date&lt;/font&gt;" style="rounded=0;whiteSpace=wrap;html=1;" vertex="1" parent="1">
          <mxGeometry x="50" y="64" width="70" height="20" as="geometry" />
        </mxCell>
        <mxCell id="-zpiWiMWNnFgHcxVn4J2-63" style="edgeStyle=orthogonalEdgeStyle;rounded=0;orthogonalLoop=1;jettySize=auto;html=1;exitX=0.5;exitY=0;exitDx=0;exitDy=0;fontFamily=Times New Roman;fontSize=11;startArrow=none;startFill=0;endArrow=none;endFill=0;" edge="1" parent="1" source="-zpiWiMWNnFgHcxVn4J2-4">
          <mxGeometry relative="1" as="geometry">
            <mxPoint x="145.1724137931035" y="39" as="targetPoint" />
          </mxGeometry>
        </mxCell>
        <mxCell id="-zpiWiMWNnFgHcxVn4J2-319" style="edgeStyle=orthogonalEdgeStyle;rounded=0;orthogonalLoop=1;jettySize=auto;html=1;exitX=0.5;exitY=1;exitDx=0;exitDy=0;entryX=0.5;entryY=1;entryDx=0;entryDy=0;fontFamily=Times New Roman;fontSize=11;startArrow=none;startFill=0;endArrow=classicThin;endFill=1;" edge="1" parent="1" source="-zpiWiMWNnFgHcxVn4J2-4" target="-zpiWiMWNnFgHcxVn4J2-11">
          <mxGeometry relative="1" as="geometry">
            <Array as="points">
              <mxPoint x="145" y="109" />
              <mxPoint x="555" y="109" />
            </Array>
          </mxGeometry>
        </mxCell>
        <mxCell id="-zpiWiMWNnFgHcxVn4J2-4" value="&lt;font style=&quot;font-size: 11px;&quot; face=&quot;Times New Roman&quot;&gt;&lt;u&gt;CustID&lt;/u&gt;&lt;/font&gt;" style="rounded=0;whiteSpace=wrap;html=1;" vertex="1" parent="1">
          <mxGeometry x="120" y="64" width="50" height="20" as="geometry" />
        </mxCell>
        <mxCell id="-zpiWiMWNnFgHcxVn4J2-64" style="edgeStyle=orthogonalEdgeStyle;rounded=0;orthogonalLoop=1;jettySize=auto;html=1;exitX=0.5;exitY=0;exitDx=0;exitDy=0;fontFamily=Times New Roman;fontSize=11;startArrow=classicThin;startFill=1;endArrow=none;endFill=0;" edge="1" parent="1" source="-zpiWiMWNnFgHcxVn4J2-5">
          <mxGeometry relative="1" as="geometry">
            <mxPoint x="205.1724137931035" y="39" as="targetPoint" />
          </mxGeometry>
        </mxCell>
        <mxCell id="-zpiWiMWNnFgHcxVn4J2-81" style="edgeStyle=orthogonalEdgeStyle;rounded=0;orthogonalLoop=1;jettySize=auto;html=1;exitX=0.5;exitY=1;exitDx=0;exitDy=0;fontFamily=Times New Roman;fontSize=11;startArrow=classicThin;startFill=1;endArrow=none;endFill=0;" edge="1" parent="1" source="-zpiWiMWNnFgHcxVn4J2-5">
          <mxGeometry relative="1" as="geometry">
            <mxPoint x="204.85714285714283" y="109" as="targetPoint" />
            <Array as="points">
              <mxPoint x="205" y="89" />
              <mxPoint x="205" y="89" />
            </Array>
          </mxGeometry>
        </mxCell>
        <mxCell id="-zpiWiMWNnFgHcxVn4J2-5" value="&lt;font style=&quot;font-size: 11px;&quot; face=&quot;Times New Roman&quot;&gt;Cus_Name&lt;/font&gt;" style="rounded=0;whiteSpace=wrap;html=1;" vertex="1" parent="1">
          <mxGeometry x="170" y="64" width="70" height="20" as="geometry" />
        </mxCell>
        <mxCell id="-zpiWiMWNnFgHcxVn4J2-65" style="edgeStyle=orthogonalEdgeStyle;rounded=0;orthogonalLoop=1;jettySize=auto;html=1;exitX=0.5;exitY=0;exitDx=0;exitDy=0;fontFamily=Times New Roman;fontSize=11;startArrow=classicThin;startFill=1;endArrow=none;endFill=0;" edge="1" parent="1" source="-zpiWiMWNnFgHcxVn4J2-6">
          <mxGeometry relative="1" as="geometry">
            <mxPoint x="275" y="39" as="targetPoint" />
          </mxGeometry>
        </mxCell>
        <mxCell id="-zpiWiMWNnFgHcxVn4J2-83" style="edgeStyle=orthogonalEdgeStyle;rounded=0;orthogonalLoop=1;jettySize=auto;html=1;exitX=0.5;exitY=1;exitDx=0;exitDy=0;fontFamily=Times New Roman;fontSize=11;startArrow=classicThin;startFill=1;endArrow=none;endFill=0;" edge="1" parent="1" source="-zpiWiMWNnFgHcxVn4J2-6">
          <mxGeometry relative="1" as="geometry">
            <mxPoint x="274.8275862068966" y="109.00000000000006" as="targetPoint" />
          </mxGeometry>
        </mxCell>
        <mxCell id="-zpiWiMWNnFgHcxVn4J2-6" value="&lt;font style=&quot;font-size: 11px;&quot; face=&quot;Times New Roman&quot;&gt;Cus_Email&lt;/font&gt;" style="rounded=0;whiteSpace=wrap;html=1;" vertex="1" parent="1">
          <mxGeometry x="240" y="64" width="70" height="20" as="geometry" />
        </mxCell>
        <mxCell id="-zpiWiMWNnFgHcxVn4J2-66" style="edgeStyle=orthogonalEdgeStyle;rounded=0;orthogonalLoop=1;jettySize=auto;html=1;exitX=0.5;exitY=0;exitDx=0;exitDy=0;fontFamily=Times New Roman;fontSize=11;startArrow=classicThin;startFill=1;endArrow=none;endFill=0;" edge="1" parent="1" source="-zpiWiMWNnFgHcxVn4J2-7">
          <mxGeometry relative="1" as="geometry">
            <mxPoint x="335" y="39" as="targetPoint" />
          </mxGeometry>
        </mxCell>
        <mxCell id="-zpiWiMWNnFgHcxVn4J2-84" style="edgeStyle=orthogonalEdgeStyle;rounded=0;orthogonalLoop=1;jettySize=auto;html=1;exitX=0.5;exitY=1;exitDx=0;exitDy=0;fontFamily=Times New Roman;fontSize=11;startArrow=classicThin;startFill=1;endArrow=none;endFill=0;" edge="1" parent="1" source="-zpiWiMWNnFgHcxVn4J2-7">
          <mxGeometry relative="1" as="geometry">
            <mxPoint x="334.8571428571428" y="109" as="targetPoint" />
          </mxGeometry>
        </mxCell>
        <mxCell id="-zpiWiMWNnFgHcxVn4J2-7" value="&lt;font style=&quot;font-size: 11px;&quot; face=&quot;Times New Roman&quot;&gt;Balance&lt;/font&gt;&lt;span style=&quot;color: rgba(0, 0, 0, 0); font-family: monospace; font-size: 0px; text-align: start;&quot;&gt;%3CmxGraphModel%3E%3Croot%3E%3CmxCell%20id%3D%220%22%2F%3E%3CmxCell%20id%3D%221%22%20parent%3D%220%22%2F%3E%3CmxCell%20id%3D%222%22%20value%3D%22%26lt%3Bfont%20style%3D%26quot%3Bfont-size%3A%2011px%3B%26quot%3B%20face%3D%26quot%3BTimes%20New%20Roman%26quot%3B%26gt%3BOrder%23%26lt%3B%2Ffont%26gt%3B%22%20style%3D%22rounded%3D0%3BwhiteSpace%3Dwrap%3Bhtml%3D1%3B%22%20vertex%3D%221%22%20parent%3D%221%22%3E%3CmxGeometry%20x%3D%2270%22%20y%3D%22210%22%20width%3D%2250%22%20height%3D%2220%22%20as%3D%22geometry%22%2F%3E%3C%2FmxCell%3E%3C%2Froot%3E%3C%2FmxGraphModel%3E&lt;/span&gt;" style="rounded=0;whiteSpace=wrap;html=1;" vertex="1" parent="1">
          <mxGeometry x="310" y="64" width="50" height="20" as="geometry" />
        </mxCell>
        <mxCell id="-zpiWiMWNnFgHcxVn4J2-67" style="edgeStyle=orthogonalEdgeStyle;rounded=0;orthogonalLoop=1;jettySize=auto;html=1;exitX=0.5;exitY=0;exitDx=0;exitDy=0;fontFamily=Times New Roman;fontSize=11;startArrow=classicThin;startFill=1;endArrow=none;endFill=0;" edge="1" parent="1" source="-zpiWiMWNnFgHcxVn4J2-8">
          <mxGeometry relative="1" as="geometry">
            <mxPoint x="395" y="39" as="targetPoint" />
          </mxGeometry>
        </mxCell>
        <mxCell id="-zpiWiMWNnFgHcxVn4J2-320" style="edgeStyle=orthogonalEdgeStyle;rounded=0;orthogonalLoop=1;jettySize=auto;html=1;exitX=0.5;exitY=1;exitDx=0;exitDy=0;fontFamily=Times New Roman;fontSize=11;startArrow=classicThin;startFill=1;endArrow=none;endFill=0;" edge="1" parent="1" source="-zpiWiMWNnFgHcxVn4J2-8">
          <mxGeometry relative="1" as="geometry">
            <mxPoint x="394.7096774193549" y="109" as="targetPoint" />
          </mxGeometry>
        </mxCell>
        <mxCell id="-zpiWiMWNnFgHcxVn4J2-8" value="&lt;font style=&quot;font-size: 11px;&quot; face=&quot;Times New Roman&quot;&gt;Credit_Limit&lt;/font&gt;" style="rounded=0;whiteSpace=wrap;html=1;" vertex="1" parent="1">
          <mxGeometry x="360" y="64" width="70" height="20" as="geometry" />
        </mxCell>
        <mxCell id="-zpiWiMWNnFgHcxVn4J2-68" style="edgeStyle=orthogonalEdgeStyle;rounded=0;orthogonalLoop=1;jettySize=auto;html=1;exitX=0.5;exitY=0;exitDx=0;exitDy=0;fontFamily=Times New Roman;fontSize=11;startArrow=none;startFill=0;endArrow=none;endFill=0;" edge="1" parent="1" source="-zpiWiMWNnFgHcxVn4J2-9">
          <mxGeometry relative="1" as="geometry">
            <mxPoint x="455" y="39" as="targetPoint" />
          </mxGeometry>
        </mxCell>
        <mxCell id="-zpiWiMWNnFgHcxVn4J2-321" style="edgeStyle=orthogonalEdgeStyle;rounded=0;orthogonalLoop=1;jettySize=auto;html=1;exitX=0.5;exitY=1;exitDx=0;exitDy=0;fontFamily=Times New Roman;fontSize=11;startArrow=classicThin;startFill=1;endArrow=none;endFill=0;" edge="1" parent="1" source="-zpiWiMWNnFgHcxVn4J2-9">
          <mxGeometry relative="1" as="geometry">
            <mxPoint x="454.7096774193549" y="109" as="targetPoint" />
          </mxGeometry>
        </mxCell>
        <mxCell id="-zpiWiMWNnFgHcxVn4J2-9" value="&lt;font style=&quot;font-size: 11px;&quot; face=&quot;Times New Roman&quot;&gt;RepID&lt;/font&gt;" style="rounded=0;whiteSpace=wrap;html=1;" vertex="1" parent="1">
          <mxGeometry x="430" y="64" width="50" height="20" as="geometry" />
        </mxCell>
        <mxCell id="-zpiWiMWNnFgHcxVn4J2-69" style="edgeStyle=orthogonalEdgeStyle;rounded=0;orthogonalLoop=1;jettySize=auto;html=1;exitX=0.5;exitY=0;exitDx=0;exitDy=0;fontFamily=Times New Roman;fontSize=11;startArrow=classicThin;startFill=1;endArrow=none;endFill=0;" edge="1" parent="1" source="-zpiWiMWNnFgHcxVn4J2-10">
          <mxGeometry relative="1" as="geometry">
            <mxPoint x="505.28571428571433" y="39" as="targetPoint" />
          </mxGeometry>
        </mxCell>
        <mxCell id="-zpiWiMWNnFgHcxVn4J2-322" style="edgeStyle=orthogonalEdgeStyle;rounded=0;orthogonalLoop=1;jettySize=auto;html=1;exitX=0.5;exitY=1;exitDx=0;exitDy=0;fontFamily=Times New Roman;fontSize=11;startArrow=classicThin;startFill=1;endArrow=none;endFill=0;" edge="1" parent="1" source="-zpiWiMWNnFgHcxVn4J2-10">
          <mxGeometry relative="1" as="geometry">
            <mxPoint x="505.0322580645161" y="109" as="targetPoint" />
          </mxGeometry>
        </mxCell>
        <mxCell id="-zpiWiMWNnFgHcxVn4J2-10" value="&lt;font style=&quot;font-size: 11px;&quot; face=&quot;Times New Roman&quot;&gt;FName&lt;/font&gt;" style="rounded=0;whiteSpace=wrap;html=1;" vertex="1" parent="1">
          <mxGeometry x="480" y="64" width="50" height="20" as="geometry" />
        </mxCell>
        <mxCell id="-zpiWiMWNnFgHcxVn4J2-70" style="edgeStyle=orthogonalEdgeStyle;rounded=0;orthogonalLoop=1;jettySize=auto;html=1;exitX=0.5;exitY=0;exitDx=0;exitDy=0;fontFamily=Times New Roman;fontSize=11;startArrow=classicThin;startFill=1;endArrow=none;endFill=0;" edge="1" parent="1" source="-zpiWiMWNnFgHcxVn4J2-11">
          <mxGeometry relative="1" as="geometry">
            <mxPoint x="555.4761904761904" y="39" as="targetPoint" />
          </mxGeometry>
        </mxCell>
        <mxCell id="-zpiWiMWNnFgHcxVn4J2-11" value="&lt;font style=&quot;font-size: 11px;&quot; face=&quot;Times New Roman&quot;&gt;LName&lt;/font&gt;" style="rounded=0;whiteSpace=wrap;html=1;" vertex="1" parent="1">
          <mxGeometry x="530" y="64" width="50" height="20" as="geometry" />
        </mxCell>
        <mxCell id="-zpiWiMWNnFgHcxVn4J2-71" style="edgeStyle=orthogonalEdgeStyle;rounded=0;orthogonalLoop=1;jettySize=auto;html=1;exitX=0.5;exitY=0;exitDx=0;exitDy=0;fontFamily=Times New Roman;fontSize=11;startArrow=none;startFill=0;endArrow=none;endFill=0;" edge="1" parent="1" source="-zpiWiMWNnFgHcxVn4J2-12">
          <mxGeometry relative="1" as="geometry">
            <mxPoint x="604.9767441860465" y="39" as="targetPoint" />
          </mxGeometry>
        </mxCell>
        <mxCell id="-zpiWiMWNnFgHcxVn4J2-325" style="edgeStyle=orthogonalEdgeStyle;rounded=0;orthogonalLoop=1;jettySize=auto;html=1;exitX=0.5;exitY=1;exitDx=0;exitDy=0;fontFamily=Times New Roman;fontSize=11;startArrow=none;startFill=0;endArrow=none;endFill=0;" edge="1" parent="1" source="-zpiWiMWNnFgHcxVn4J2-12">
          <mxGeometry relative="1" as="geometry">
            <mxPoint x="604.8518518518517" y="119" as="targetPoint" />
          </mxGeometry>
        </mxCell>
        <mxCell id="-zpiWiMWNnFgHcxVn4J2-12" value="&lt;font style=&quot;font-size: 11px;&quot; face=&quot;Times New Roman&quot;&gt;&lt;u&gt;Item#&lt;/u&gt;&lt;/font&gt;" style="rounded=0;whiteSpace=wrap;html=1;" vertex="1" parent="1">
          <mxGeometry x="580" y="64" width="50" height="20" as="geometry" />
        </mxCell>
        <mxCell id="-zpiWiMWNnFgHcxVn4J2-72" style="edgeStyle=orthogonalEdgeStyle;rounded=0;orthogonalLoop=1;jettySize=auto;html=1;exitX=0.5;exitY=0;exitDx=0;exitDy=0;fontFamily=Times New Roman;fontSize=11;startArrow=classicThin;startFill=1;endArrow=none;endFill=0;" edge="1" parent="1" source="-zpiWiMWNnFgHcxVn4J2-13">
          <mxGeometry relative="1" as="geometry">
            <mxPoint x="655.2093023255815" y="39" as="targetPoint" />
          </mxGeometry>
        </mxCell>
        <mxCell id="-zpiWiMWNnFgHcxVn4J2-326" style="edgeStyle=orthogonalEdgeStyle;rounded=0;orthogonalLoop=1;jettySize=auto;html=1;exitX=0.5;exitY=1;exitDx=0;exitDy=0;fontFamily=Times New Roman;fontSize=11;startArrow=classicThin;startFill=1;endArrow=none;endFill=0;" edge="1" parent="1" source="-zpiWiMWNnFgHcxVn4J2-13">
          <mxGeometry relative="1" as="geometry">
            <mxPoint x="655.2222222222222" y="119" as="targetPoint" />
          </mxGeometry>
        </mxCell>
        <mxCell id="-zpiWiMWNnFgHcxVn4J2-13" value="&lt;font style=&quot;font-size: 11px;&quot; face=&quot;Times New Roman&quot;&gt;Name&lt;/font&gt;" style="rounded=0;whiteSpace=wrap;html=1;" vertex="1" parent="1">
          <mxGeometry x="630" y="64" width="50" height="20" as="geometry" />
        </mxCell>
        <mxCell id="-zpiWiMWNnFgHcxVn4J2-73" style="edgeStyle=orthogonalEdgeStyle;rounded=0;orthogonalLoop=1;jettySize=auto;html=1;exitX=0.5;exitY=0;exitDx=0;exitDy=0;fontFamily=Times New Roman;fontSize=11;startArrow=classicThin;startFill=1;endArrow=none;endFill=0;" edge="1" parent="1" source="-zpiWiMWNnFgHcxVn4J2-15">
          <mxGeometry relative="1" as="geometry">
            <mxPoint x="700.4000000000001" y="39" as="targetPoint" />
          </mxGeometry>
        </mxCell>
        <mxCell id="-zpiWiMWNnFgHcxVn4J2-327" style="edgeStyle=orthogonalEdgeStyle;rounded=0;orthogonalLoop=1;jettySize=auto;html=1;exitX=0.5;exitY=1;exitDx=0;exitDy=0;fontFamily=Times New Roman;fontSize=11;startArrow=classicThin;startFill=1;endArrow=none;endFill=0;" edge="1" parent="1" source="-zpiWiMWNnFgHcxVn4J2-15">
          <mxGeometry relative="1" as="geometry">
            <mxPoint x="699.6666666666665" y="119" as="targetPoint" />
          </mxGeometry>
        </mxCell>
        <mxCell id="-zpiWiMWNnFgHcxVn4J2-15" value="&lt;font style=&quot;font-size: 11px;&quot; face=&quot;Times New Roman&quot;&gt;Class&lt;/font&gt;" style="rounded=0;whiteSpace=wrap;html=1;" vertex="1" parent="1">
          <mxGeometry x="680" y="64" width="40" height="20" as="geometry" />
        </mxCell>
        <mxCell id="-zpiWiMWNnFgHcxVn4J2-74" style="edgeStyle=orthogonalEdgeStyle;rounded=0;orthogonalLoop=1;jettySize=auto;html=1;exitX=0.5;exitY=0;exitDx=0;exitDy=0;fontFamily=Times New Roman;fontSize=11;startArrow=classicThin;startFill=1;endArrow=none;endFill=0;" edge="1" parent="1" source="-zpiWiMWNnFgHcxVn4J2-16">
          <mxGeometry relative="1" as="geometry">
            <mxPoint x="739.8461538461538" y="39" as="targetPoint" />
          </mxGeometry>
        </mxCell>
        <mxCell id="-zpiWiMWNnFgHcxVn4J2-328" style="edgeStyle=orthogonalEdgeStyle;rounded=0;orthogonalLoop=1;jettySize=auto;html=1;exitX=0.5;exitY=1;exitDx=0;exitDy=0;fontFamily=Times New Roman;fontSize=11;startArrow=classicThin;startFill=1;endArrow=none;endFill=0;" edge="1" parent="1" source="-zpiWiMWNnFgHcxVn4J2-16">
          <mxGeometry relative="1" as="geometry">
            <mxPoint x="739.6666666666665" y="119" as="targetPoint" />
          </mxGeometry>
        </mxCell>
        <mxCell id="-zpiWiMWNnFgHcxVn4J2-16" value="&lt;font style=&quot;font-size: 11px;&quot; face=&quot;Times New Roman&quot;&gt;Price&lt;/font&gt;" style="rounded=0;whiteSpace=wrap;html=1;" vertex="1" parent="1">
          <mxGeometry x="720" y="64" width="40" height="20" as="geometry" />
        </mxCell>
        <mxCell id="-zpiWiMWNnFgHcxVn4J2-75" style="edgeStyle=orthogonalEdgeStyle;rounded=0;orthogonalLoop=1;jettySize=auto;html=1;exitX=0.5;exitY=0;exitDx=0;exitDy=0;fontFamily=Times New Roman;fontSize=11;startArrow=classicThin;startFill=1;endArrow=none;endFill=0;" edge="1" parent="1" source="-zpiWiMWNnFgHcxVn4J2-17">
          <mxGeometry relative="1" as="geometry">
            <mxPoint x="800.4000000000001" y="39" as="targetPoint" />
          </mxGeometry>
        </mxCell>
        <mxCell id="-zpiWiMWNnFgHcxVn4J2-329" style="edgeStyle=orthogonalEdgeStyle;rounded=0;orthogonalLoop=1;jettySize=auto;html=1;exitX=0.5;exitY=1;exitDx=0;exitDy=0;fontFamily=Times New Roman;fontSize=11;startArrow=classicThin;startFill=1;endArrow=none;endFill=0;" edge="1" parent="1" source="-zpiWiMWNnFgHcxVn4J2-17">
          <mxGeometry relative="1" as="geometry">
            <mxPoint x="800.0869565217392" y="119" as="targetPoint" />
          </mxGeometry>
        </mxCell>
        <mxCell id="-zpiWiMWNnFgHcxVn4J2-17" value="&lt;font style=&quot;font-size: 11px;&quot; face=&quot;Times New Roman&quot;&gt;Num_Ordered&lt;/font&gt;" style="rounded=0;whiteSpace=wrap;html=1;" vertex="1" parent="1">
          <mxGeometry x="760" y="64" width="80" height="20" as="geometry" />
        </mxCell>
        <mxCell id="-zpiWiMWNnFgHcxVn4J2-18" value="&lt;font style=&quot;font-size: 11px;&quot; face=&quot;Times New Roman&quot;&gt;Quoted_Price&lt;/font&gt;" style="rounded=0;whiteSpace=wrap;html=1;" vertex="1" parent="1">
          <mxGeometry x="840" y="64" width="80" height="20" as="geometry" />
        </mxCell>
        <mxCell id="-zpiWiMWNnFgHcxVn4J2-190" value="&lt;font style=&quot;font-size: 11px;&quot; face=&quot;Times New Roman&quot;&gt;&lt;u&gt;Order#&lt;/u&gt;&lt;/font&gt;" style="rounded=0;whiteSpace=wrap;html=1;" vertex="1" parent="1">
          <mxGeometry y="240" width="50" height="20" as="geometry" />
        </mxCell>
        <mxCell id="-zpiWiMWNnFgHcxVn4J2-192" value="&lt;font style=&quot;font-size: 11px;&quot; face=&quot;Times New Roman&quot;&gt;Order_Date&lt;/font&gt;" style="rounded=0;whiteSpace=wrap;html=1;" vertex="1" parent="1">
          <mxGeometry x="50" y="240" width="70" height="20" as="geometry" />
        </mxCell>
        <mxCell id="-zpiWiMWNnFgHcxVn4J2-195" value="&lt;font style=&quot;font-size: 11px;&quot; face=&quot;Times New Roman&quot;&gt;&lt;u&gt;CustID&lt;/u&gt;&lt;/font&gt;" style="rounded=0;whiteSpace=wrap;html=1;" vertex="1" parent="1">
          <mxGeometry x="120" y="240" width="50" height="20" as="geometry" />
        </mxCell>
        <mxCell id="-zpiWiMWNnFgHcxVn4J2-198" value="&lt;font style=&quot;font-size: 11px;&quot; face=&quot;Times New Roman&quot;&gt;Cus_Name&lt;/font&gt;" style="rounded=0;whiteSpace=wrap;html=1;" vertex="1" parent="1">
          <mxGeometry x="170" y="240" width="70" height="20" as="geometry" />
        </mxCell>
        <mxCell id="-zpiWiMWNnFgHcxVn4J2-201" value="&lt;font style=&quot;font-size: 11px;&quot; face=&quot;Times New Roman&quot;&gt;Cus_Email&lt;/font&gt;" style="rounded=0;whiteSpace=wrap;html=1;" vertex="1" parent="1">
          <mxGeometry x="240" y="240" width="70" height="20" as="geometry" />
        </mxCell>
        <mxCell id="-zpiWiMWNnFgHcxVn4J2-204" value="&lt;font style=&quot;font-size: 11px;&quot; face=&quot;Times New Roman&quot;&gt;Balance&lt;/font&gt;&lt;span style=&quot;color: rgba(0, 0, 0, 0); font-family: monospace; font-size: 0px; text-align: start;&quot;&gt;%3CmxGraphModel%3E%3Croot%3E%3CmxCell%20id%3D%220%22%2F%3E%3CmxCell%20id%3D%221%22%20parent%3D%220%22%2F%3E%3CmxCell%20id%3D%222%22%20value%3D%22%26lt%3Bfont%20style%3D%26quot%3Bfont-size%3A%2011px%3B%26quot%3B%20face%3D%26quot%3BTimes%20New%20Roman%26quot%3B%26gt%3BOrder%23%26lt%3B%2Ffont%26gt%3B%22%20style%3D%22rounded%3D0%3BwhiteSpace%3Dwrap%3Bhtml%3D1%3B%22%20vertex%3D%221%22%20parent%3D%221%22%3E%3CmxGeometry%20x%3D%2270%22%20y%3D%22210%22%20width%3D%2250%22%20height%3D%2220%22%20as%3D%22geometry%22%2F%3E%3C%2FmxCell%3E%3C%2Froot%3E%3C%2FmxGraphModel%3E&lt;/span&gt;" style="rounded=0;whiteSpace=wrap;html=1;" vertex="1" parent="1">
          <mxGeometry x="310" y="240" width="50" height="20" as="geometry" />
        </mxCell>
        <mxCell id="-zpiWiMWNnFgHcxVn4J2-206" value="&lt;font style=&quot;font-size: 11px;&quot; face=&quot;Times New Roman&quot;&gt;Credit_Limit&lt;/font&gt;" style="rounded=0;whiteSpace=wrap;html=1;" vertex="1" parent="1">
          <mxGeometry x="360" y="240" width="70" height="20" as="geometry" />
        </mxCell>
        <mxCell id="-zpiWiMWNnFgHcxVn4J2-349" style="edgeStyle=orthogonalEdgeStyle;rounded=0;orthogonalLoop=1;jettySize=auto;html=1;exitX=0.5;exitY=1;exitDx=0;exitDy=0;entryX=0.5;entryY=1;entryDx=0;entryDy=0;fontFamily=Times New Roman;fontSize=11;startArrow=none;startFill=0;endArrow=classicThin;endFill=1;" edge="1" parent="1" source="-zpiWiMWNnFgHcxVn4J2-209" target="-zpiWiMWNnFgHcxVn4J2-214">
          <mxGeometry relative="1" as="geometry">
            <Array as="points">
              <mxPoint x="455" y="286" />
              <mxPoint x="555" y="286" />
            </Array>
          </mxGeometry>
        </mxCell>
        <mxCell id="-zpiWiMWNnFgHcxVn4J2-209" value="&lt;font style=&quot;font-size: 11px;&quot; face=&quot;Times New Roman&quot;&gt;&lt;u&gt;RepID&lt;/u&gt;&lt;/font&gt;" style="rounded=0;whiteSpace=wrap;html=1;" vertex="1" parent="1">
          <mxGeometry x="430" y="240" width="50" height="20" as="geometry" />
        </mxCell>
        <mxCell id="-zpiWiMWNnFgHcxVn4J2-350" style="edgeStyle=orthogonalEdgeStyle;rounded=0;orthogonalLoop=1;jettySize=auto;html=1;exitX=0.5;exitY=1;exitDx=0;exitDy=0;fontFamily=Times New Roman;fontSize=11;startArrow=classicThin;startFill=1;endArrow=none;endFill=0;" edge="1" parent="1" source="-zpiWiMWNnFgHcxVn4J2-212">
          <mxGeometry relative="1" as="geometry">
            <mxPoint x="504.7777777777778" y="286" as="targetPoint" />
          </mxGeometry>
        </mxCell>
        <mxCell id="-zpiWiMWNnFgHcxVn4J2-212" value="&lt;font style=&quot;font-size: 11px;&quot; face=&quot;Times New Roman&quot;&gt;FName&lt;/font&gt;" style="rounded=0;whiteSpace=wrap;html=1;" vertex="1" parent="1">
          <mxGeometry x="480" y="240" width="50" height="20" as="geometry" />
        </mxCell>
        <mxCell id="-zpiWiMWNnFgHcxVn4J2-214" value="&lt;font style=&quot;font-size: 11px;&quot; face=&quot;Times New Roman&quot;&gt;LName&lt;/font&gt;" style="rounded=0;whiteSpace=wrap;html=1;" vertex="1" parent="1">
          <mxGeometry x="530" y="240" width="50" height="20" as="geometry" />
        </mxCell>
        <mxCell id="-zpiWiMWNnFgHcxVn4J2-217" value="&lt;font style=&quot;font-size: 11px;&quot; face=&quot;Times New Roman&quot;&gt;&lt;u&gt;Item#&lt;/u&gt;&lt;/font&gt;" style="rounded=0;whiteSpace=wrap;html=1;" vertex="1" parent="1">
          <mxGeometry x="580" y="240" width="50" height="20" as="geometry" />
        </mxCell>
        <mxCell id="-zpiWiMWNnFgHcxVn4J2-220" value="&lt;font style=&quot;font-size: 11px;&quot; face=&quot;Times New Roman&quot;&gt;Name&lt;/font&gt;" style="rounded=0;whiteSpace=wrap;html=1;" vertex="1" parent="1">
          <mxGeometry x="630" y="240" width="50" height="20" as="geometry" />
        </mxCell>
        <mxCell id="-zpiWiMWNnFgHcxVn4J2-223" value="&lt;font style=&quot;font-size: 11px;&quot; face=&quot;Times New Roman&quot;&gt;Class&lt;/font&gt;" style="rounded=0;whiteSpace=wrap;html=1;" vertex="1" parent="1">
          <mxGeometry x="680" y="240" width="40" height="20" as="geometry" />
        </mxCell>
        <mxCell id="-zpiWiMWNnFgHcxVn4J2-226" value="&lt;font style=&quot;font-size: 11px;&quot; face=&quot;Times New Roman&quot;&gt;Price&lt;/font&gt;" style="rounded=0;whiteSpace=wrap;html=1;" vertex="1" parent="1">
          <mxGeometry x="720" y="240" width="40" height="20" as="geometry" />
        </mxCell>
        <mxCell id="-zpiWiMWNnFgHcxVn4J2-229" value="&lt;font style=&quot;font-size: 11px;&quot; face=&quot;Times New Roman&quot;&gt;Num_Ordered&lt;/font&gt;" style="rounded=0;whiteSpace=wrap;html=1;" vertex="1" parent="1">
          <mxGeometry x="760" y="240" width="80" height="20" as="geometry" />
        </mxCell>
        <mxCell id="-zpiWiMWNnFgHcxVn4J2-230" value="&lt;font style=&quot;font-size: 11px;&quot; face=&quot;Times New Roman&quot;&gt;Quoted_Price&lt;/font&gt;" style="rounded=0;whiteSpace=wrap;html=1;" vertex="1" parent="1">
          <mxGeometry x="840" y="240" width="80" height="20" as="geometry" />
        </mxCell>
        <mxCell id="-zpiWiMWNnFgHcxVn4J2-240" style="edgeStyle=orthogonalEdgeStyle;rounded=0;orthogonalLoop=1;jettySize=auto;html=1;exitX=0.5;exitY=1;exitDx=0;exitDy=0;entryX=0.5;entryY=1;entryDx=0;entryDy=0;fontFamily=Times New Roman;fontSize=11;startArrow=none;startFill=0;endArrow=classicThin;endFill=1;" edge="1" parent="1" source="-zpiWiMWNnFgHcxVn4J2-241" target="-zpiWiMWNnFgHcxVn4J2-276">
          <mxGeometry relative="1" as="geometry">
            <Array as="points">
              <mxPoint x="25" y="413" />
              <mxPoint x="880" y="413" />
            </Array>
          </mxGeometry>
        </mxCell>
        <mxCell id="-zpiWiMWNnFgHcxVn4J2-241" value="&lt;font style=&quot;font-size: 11px;&quot; face=&quot;Times New Roman&quot;&gt;&lt;u&gt;Order#&lt;/u&gt;&lt;/font&gt;" style="rounded=0;whiteSpace=wrap;html=1;" vertex="1" parent="1">
          <mxGeometry y="368" width="50" height="20" as="geometry" />
        </mxCell>
        <mxCell id="-zpiWiMWNnFgHcxVn4J2-244" value="&lt;font style=&quot;font-size: 11px;&quot; face=&quot;Times New Roman&quot;&gt;Order_Date&lt;/font&gt;" style="rounded=0;whiteSpace=wrap;html=1;" vertex="1" parent="1">
          <mxGeometry x="50" y="368" width="70" height="20" as="geometry" />
        </mxCell>
        <mxCell id="-zpiWiMWNnFgHcxVn4J2-246" value="&lt;font style=&quot;font-size: 11px;&quot; face=&quot;Times New Roman&quot;&gt;&lt;u&gt;CustID&lt;/u&gt;&lt;/font&gt;" style="rounded=0;whiteSpace=wrap;html=1;" vertex="1" parent="1">
          <mxGeometry x="120" y="368" width="50" height="20" as="geometry" />
        </mxCell>
        <mxCell id="-zpiWiMWNnFgHcxVn4J2-248" value="&lt;font style=&quot;font-size: 11px;&quot; face=&quot;Times New Roman&quot;&gt;Cus_Name&lt;/font&gt;" style="rounded=0;whiteSpace=wrap;html=1;" vertex="1" parent="1">
          <mxGeometry x="170" y="368" width="70" height="20" as="geometry" />
        </mxCell>
        <mxCell id="-zpiWiMWNnFgHcxVn4J2-250" value="&lt;font style=&quot;font-size: 11px;&quot; face=&quot;Times New Roman&quot;&gt;Cus_Email&lt;/font&gt;" style="rounded=0;whiteSpace=wrap;html=1;" vertex="1" parent="1">
          <mxGeometry x="240" y="368" width="70" height="20" as="geometry" />
        </mxCell>
        <mxCell id="-zpiWiMWNnFgHcxVn4J2-252" value="&lt;font style=&quot;font-size: 11px;&quot; face=&quot;Times New Roman&quot;&gt;Balance&lt;/font&gt;&lt;span style=&quot;color: rgba(0, 0, 0, 0); font-family: monospace; font-size: 0px; text-align: start;&quot;&gt;%3CmxGraphModel%3E%3Croot%3E%3CmxCell%20id%3D%220%22%2F%3E%3CmxCell%20id%3D%221%22%20parent%3D%220%22%2F%3E%3CmxCell%20id%3D%222%22%20value%3D%22%26lt%3Bfont%20style%3D%26quot%3Bfont-size%3A%2011px%3B%26quot%3B%20face%3D%26quot%3BTimes%20New%20Roman%26quot%3B%26gt%3BOrder%23%26lt%3B%2Ffont%26gt%3B%22%20style%3D%22rounded%3D0%3BwhiteSpace%3Dwrap%3Bhtml%3D1%3B%22%20vertex%3D%221%22%20parent%3D%221%22%3E%3CmxGeometry%20x%3D%2270%22%20y%3D%22210%22%20width%3D%2250%22%20height%3D%2220%22%20as%3D%22geometry%22%2F%3E%3C%2FmxCell%3E%3C%2Froot%3E%3C%2FmxGraphModel%3E&lt;/span&gt;" style="rounded=0;whiteSpace=wrap;html=1;" vertex="1" parent="1">
          <mxGeometry x="310" y="368" width="50" height="20" as="geometry" />
        </mxCell>
        <mxCell id="-zpiWiMWNnFgHcxVn4J2-254" value="&lt;font style=&quot;font-size: 11px;&quot; face=&quot;Times New Roman&quot;&gt;Credit_Limit&lt;/font&gt;" style="rounded=0;whiteSpace=wrap;html=1;" vertex="1" parent="1">
          <mxGeometry x="360" y="368" width="70" height="20" as="geometry" />
        </mxCell>
        <mxCell id="-zpiWiMWNnFgHcxVn4J2-256" value="&lt;font style=&quot;font-size: 11px;&quot; face=&quot;Times New Roman&quot;&gt;&lt;u&gt;RepID&lt;/u&gt;&lt;/font&gt;" style="rounded=0;whiteSpace=wrap;html=1;" vertex="1" parent="1">
          <mxGeometry x="430" y="368" width="50" height="20" as="geometry" />
        </mxCell>
        <mxCell id="-zpiWiMWNnFgHcxVn4J2-258" value="&lt;font style=&quot;font-size: 11px;&quot; face=&quot;Times New Roman&quot;&gt;FName&lt;/font&gt;" style="rounded=0;whiteSpace=wrap;html=1;" vertex="1" parent="1">
          <mxGeometry x="480" y="368" width="50" height="20" as="geometry" />
        </mxCell>
        <mxCell id="-zpiWiMWNnFgHcxVn4J2-260" value="&lt;font style=&quot;font-size: 11px;&quot; face=&quot;Times New Roman&quot;&gt;LName&lt;/font&gt;" style="rounded=0;whiteSpace=wrap;html=1;" vertex="1" parent="1">
          <mxGeometry x="530" y="368" width="50" height="20" as="geometry" />
        </mxCell>
        <mxCell id="-zpiWiMWNnFgHcxVn4J2-262" style="edgeStyle=orthogonalEdgeStyle;rounded=0;orthogonalLoop=1;jettySize=auto;html=1;exitX=0.5;exitY=1;exitDx=0;exitDy=0;fontFamily=Times New Roman;fontSize=11;startArrow=none;startFill=0;endArrow=none;endFill=0;" edge="1" parent="1" source="-zpiWiMWNnFgHcxVn4J2-263">
          <mxGeometry relative="1" as="geometry">
            <mxPoint x="605" y="413" as="targetPoint" />
          </mxGeometry>
        </mxCell>
        <mxCell id="-zpiWiMWNnFgHcxVn4J2-263" value="&lt;font style=&quot;font-size: 11px;&quot; face=&quot;Times New Roman&quot;&gt;&lt;u&gt;Item#&lt;/u&gt;&lt;/font&gt;" style="rounded=0;whiteSpace=wrap;html=1;" vertex="1" parent="1">
          <mxGeometry x="580" y="368" width="50" height="20" as="geometry" />
        </mxCell>
        <mxCell id="-zpiWiMWNnFgHcxVn4J2-266" value="&lt;font style=&quot;font-size: 11px;&quot; face=&quot;Times New Roman&quot;&gt;Name&lt;/font&gt;" style="rounded=0;whiteSpace=wrap;html=1;" vertex="1" parent="1">
          <mxGeometry x="630" y="368" width="50" height="20" as="geometry" />
        </mxCell>
        <mxCell id="-zpiWiMWNnFgHcxVn4J2-269" value="&lt;font style=&quot;font-size: 11px;&quot; face=&quot;Times New Roman&quot;&gt;Class&lt;/font&gt;" style="rounded=0;whiteSpace=wrap;html=1;" vertex="1" parent="1">
          <mxGeometry x="680" y="368" width="40" height="20" as="geometry" />
        </mxCell>
        <mxCell id="-zpiWiMWNnFgHcxVn4J2-272" value="&lt;font style=&quot;font-size: 11px;&quot; face=&quot;Times New Roman&quot;&gt;Price&lt;/font&gt;" style="rounded=0;whiteSpace=wrap;html=1;" vertex="1" parent="1">
          <mxGeometry x="720" y="368" width="40" height="20" as="geometry" />
        </mxCell>
        <mxCell id="-zpiWiMWNnFgHcxVn4J2-274" style="edgeStyle=orthogonalEdgeStyle;rounded=0;orthogonalLoop=1;jettySize=auto;html=1;exitX=0.5;exitY=1;exitDx=0;exitDy=0;fontFamily=Times New Roman;fontSize=11;startArrow=classicThin;startFill=1;endArrow=none;endFill=0;" edge="1" parent="1" source="-zpiWiMWNnFgHcxVn4J2-275">
          <mxGeometry relative="1" as="geometry">
            <mxPoint x="800.3333333333333" y="413" as="targetPoint" />
          </mxGeometry>
        </mxCell>
        <mxCell id="-zpiWiMWNnFgHcxVn4J2-275" value="&lt;font style=&quot;font-size: 11px;&quot; face=&quot;Times New Roman&quot;&gt;Num_Ordered&lt;/font&gt;" style="rounded=0;whiteSpace=wrap;html=1;" vertex="1" parent="1">
          <mxGeometry x="760" y="368" width="80" height="20" as="geometry" />
        </mxCell>
        <mxCell id="-zpiWiMWNnFgHcxVn4J2-276" value="&lt;font style=&quot;font-size: 11px;&quot; face=&quot;Times New Roman&quot;&gt;Quoted_Price&lt;/font&gt;" style="rounded=0;whiteSpace=wrap;html=1;" vertex="1" parent="1">
          <mxGeometry x="840" y="368" width="80" height="20" as="geometry" />
        </mxCell>
        <mxCell id="-zpiWiMWNnFgHcxVn4J2-278" style="edgeStyle=orthogonalEdgeStyle;rounded=0;orthogonalLoop=1;jettySize=auto;html=1;exitX=0.5;exitY=0;exitDx=0;exitDy=0;fontFamily=Times New Roman;fontSize=11;endArrow=classicThin;endFill=1;entryX=0.5;entryY=0;entryDx=0;entryDy=0;startArrow=none;startFill=0;" edge="1" parent="1" source="-zpiWiMWNnFgHcxVn4J2-280" target="-zpiWiMWNnFgHcxVn4J2-318">
          <mxGeometry relative="1" as="geometry">
            <mxPoint x="900" y="475" as="targetPoint" />
            <Array as="points">
              <mxPoint x="25" y="500" />
              <mxPoint x="880" y="500" />
            </Array>
          </mxGeometry>
        </mxCell>
        <mxCell id="-zpiWiMWNnFgHcxVn4J2-279" style="edgeStyle=orthogonalEdgeStyle;rounded=0;orthogonalLoop=1;jettySize=auto;html=1;exitX=0.5;exitY=1;exitDx=0;exitDy=0;entryX=0.5;entryY=1;entryDx=0;entryDy=0;fontFamily=Times New Roman;fontSize=11;startArrow=none;startFill=0;endArrow=classicThin;endFill=1;" edge="1" parent="1" source="-zpiWiMWNnFgHcxVn4J2-280" target="-zpiWiMWNnFgHcxVn4J2-282">
          <mxGeometry relative="1" as="geometry">
            <Array as="points">
              <mxPoint x="25" y="570" />
              <mxPoint x="85" y="570" />
            </Array>
          </mxGeometry>
        </mxCell>
        <mxCell id="-zpiWiMWNnFgHcxVn4J2-280" value="&lt;font style=&quot;font-size: 11px;&quot; face=&quot;Times New Roman&quot;&gt;&lt;u&gt;Order#&lt;/u&gt;&lt;/font&gt;" style="rounded=0;whiteSpace=wrap;html=1;" vertex="1" parent="1">
          <mxGeometry y="525" width="50" height="20" as="geometry" />
        </mxCell>
        <mxCell id="-zpiWiMWNnFgHcxVn4J2-281" style="edgeStyle=orthogonalEdgeStyle;rounded=0;orthogonalLoop=1;jettySize=auto;html=1;exitX=0.5;exitY=0;exitDx=0;exitDy=0;fontFamily=Times New Roman;fontSize=11;endArrow=none;endFill=0;startArrow=classicThin;startFill=1;" edge="1" parent="1" source="-zpiWiMWNnFgHcxVn4J2-282">
          <mxGeometry relative="1" as="geometry">
            <mxPoint x="85.28571428571445" y="500" as="targetPoint" />
          </mxGeometry>
        </mxCell>
        <mxCell id="-zpiWiMWNnFgHcxVn4J2-282" value="&lt;font style=&quot;font-size: 11px;&quot; face=&quot;Times New Roman&quot;&gt;Order_Date&lt;/font&gt;" style="rounded=0;whiteSpace=wrap;html=1;" vertex="1" parent="1">
          <mxGeometry x="50" y="525" width="70" height="20" as="geometry" />
        </mxCell>
        <mxCell id="-zpiWiMWNnFgHcxVn4J2-283" style="edgeStyle=orthogonalEdgeStyle;rounded=0;orthogonalLoop=1;jettySize=auto;html=1;exitX=0.5;exitY=0;exitDx=0;exitDy=0;fontFamily=Times New Roman;fontSize=11;startArrow=none;startFill=0;endArrow=none;endFill=0;" edge="1" parent="1" source="-zpiWiMWNnFgHcxVn4J2-285">
          <mxGeometry relative="1" as="geometry">
            <mxPoint x="145.1724137931035" y="500" as="targetPoint" />
          </mxGeometry>
        </mxCell>
        <mxCell id="-zpiWiMWNnFgHcxVn4J2-284" style="edgeStyle=orthogonalEdgeStyle;rounded=0;orthogonalLoop=1;jettySize=auto;html=1;exitX=0.5;exitY=1;exitDx=0;exitDy=0;entryX=0.5;entryY=1;entryDx=0;entryDy=0;fontFamily=Times New Roman;fontSize=11;startArrow=none;startFill=0;endArrow=classicThin;endFill=1;" edge="1" parent="1" source="-zpiWiMWNnFgHcxVn4J2-285" target="-zpiWiMWNnFgHcxVn4J2-296">
          <mxGeometry relative="1" as="geometry">
            <Array as="points">
              <mxPoint x="145" y="570" />
              <mxPoint x="395" y="570" />
            </Array>
          </mxGeometry>
        </mxCell>
        <mxCell id="-zpiWiMWNnFgHcxVn4J2-285" value="&lt;font style=&quot;font-size: 11px;&quot; face=&quot;Times New Roman&quot;&gt;&lt;u&gt;CustID&lt;/u&gt;&lt;/font&gt;" style="rounded=0;whiteSpace=wrap;html=1;" vertex="1" parent="1">
          <mxGeometry x="120" y="525" width="50" height="20" as="geometry" />
        </mxCell>
        <mxCell id="-zpiWiMWNnFgHcxVn4J2-286" style="edgeStyle=orthogonalEdgeStyle;rounded=0;orthogonalLoop=1;jettySize=auto;html=1;exitX=0.5;exitY=0;exitDx=0;exitDy=0;fontFamily=Times New Roman;fontSize=11;startArrow=classicThin;startFill=1;endArrow=none;endFill=0;" edge="1" parent="1" source="-zpiWiMWNnFgHcxVn4J2-288">
          <mxGeometry relative="1" as="geometry">
            <mxPoint x="205.1724137931035" y="500" as="targetPoint" />
          </mxGeometry>
        </mxCell>
        <mxCell id="-zpiWiMWNnFgHcxVn4J2-287" style="edgeStyle=orthogonalEdgeStyle;rounded=0;orthogonalLoop=1;jettySize=auto;html=1;exitX=0.5;exitY=1;exitDx=0;exitDy=0;fontFamily=Times New Roman;fontSize=11;startArrow=classicThin;startFill=1;endArrow=none;endFill=0;" edge="1" parent="1" source="-zpiWiMWNnFgHcxVn4J2-288">
          <mxGeometry relative="1" as="geometry">
            <mxPoint x="204.8571428571429" y="570" as="targetPoint" />
            <Array as="points">
              <mxPoint x="205" y="550" />
              <mxPoint x="205" y="550" />
            </Array>
          </mxGeometry>
        </mxCell>
        <mxCell id="-zpiWiMWNnFgHcxVn4J2-288" value="&lt;font style=&quot;font-size: 11px;&quot; face=&quot;Times New Roman&quot;&gt;Cus_Name&lt;/font&gt;" style="rounded=0;whiteSpace=wrap;html=1;" vertex="1" parent="1">
          <mxGeometry x="170" y="525" width="70" height="20" as="geometry" />
        </mxCell>
        <mxCell id="-zpiWiMWNnFgHcxVn4J2-289" style="edgeStyle=orthogonalEdgeStyle;rounded=0;orthogonalLoop=1;jettySize=auto;html=1;exitX=0.5;exitY=0;exitDx=0;exitDy=0;fontFamily=Times New Roman;fontSize=11;startArrow=classicThin;startFill=1;endArrow=none;endFill=0;" edge="1" parent="1" source="-zpiWiMWNnFgHcxVn4J2-291">
          <mxGeometry relative="1" as="geometry">
            <mxPoint x="275" y="500" as="targetPoint" />
          </mxGeometry>
        </mxCell>
        <mxCell id="-zpiWiMWNnFgHcxVn4J2-290" style="edgeStyle=orthogonalEdgeStyle;rounded=0;orthogonalLoop=1;jettySize=auto;html=1;exitX=0.5;exitY=1;exitDx=0;exitDy=0;fontFamily=Times New Roman;fontSize=11;startArrow=classicThin;startFill=1;endArrow=none;endFill=0;" edge="1" parent="1" source="-zpiWiMWNnFgHcxVn4J2-291">
          <mxGeometry relative="1" as="geometry">
            <mxPoint x="274.82758620689674" y="570" as="targetPoint" />
          </mxGeometry>
        </mxCell>
        <mxCell id="-zpiWiMWNnFgHcxVn4J2-291" value="&lt;font style=&quot;font-size: 11px;&quot; face=&quot;Times New Roman&quot;&gt;Cus_Email&lt;/font&gt;" style="rounded=0;whiteSpace=wrap;html=1;" vertex="1" parent="1">
          <mxGeometry x="240" y="525" width="70" height="20" as="geometry" />
        </mxCell>
        <mxCell id="-zpiWiMWNnFgHcxVn4J2-292" style="edgeStyle=orthogonalEdgeStyle;rounded=0;orthogonalLoop=1;jettySize=auto;html=1;exitX=0.5;exitY=0;exitDx=0;exitDy=0;fontFamily=Times New Roman;fontSize=11;startArrow=classicThin;startFill=1;endArrow=none;endFill=0;" edge="1" parent="1" source="-zpiWiMWNnFgHcxVn4J2-294">
          <mxGeometry relative="1" as="geometry">
            <mxPoint x="335" y="500" as="targetPoint" />
          </mxGeometry>
        </mxCell>
        <mxCell id="-zpiWiMWNnFgHcxVn4J2-293" style="edgeStyle=orthogonalEdgeStyle;rounded=0;orthogonalLoop=1;jettySize=auto;html=1;exitX=0.5;exitY=1;exitDx=0;exitDy=0;fontFamily=Times New Roman;fontSize=11;startArrow=classicThin;startFill=1;endArrow=none;endFill=0;" edge="1" parent="1" source="-zpiWiMWNnFgHcxVn4J2-294">
          <mxGeometry relative="1" as="geometry">
            <mxPoint x="334.85714285714243" y="570" as="targetPoint" />
          </mxGeometry>
        </mxCell>
        <mxCell id="-zpiWiMWNnFgHcxVn4J2-294" value="&lt;font style=&quot;font-size: 11px;&quot; face=&quot;Times New Roman&quot;&gt;Balance&lt;/font&gt;&lt;span style=&quot;color: rgba(0, 0, 0, 0); font-family: monospace; font-size: 0px; text-align: start;&quot;&gt;%3CmxGraphModel%3E%3Croot%3E%3CmxCell%20id%3D%220%22%2F%3E%3CmxCell%20id%3D%221%22%20parent%3D%220%22%2F%3E%3CmxCell%20id%3D%222%22%20value%3D%22%26lt%3Bfont%20style%3D%26quot%3Bfont-size%3A%2011px%3B%26quot%3B%20face%3D%26quot%3BTimes%20New%20Roman%26quot%3B%26gt%3BOrder%23%26lt%3B%2Ffont%26gt%3B%22%20style%3D%22rounded%3D0%3BwhiteSpace%3Dwrap%3Bhtml%3D1%3B%22%20vertex%3D%221%22%20parent%3D%221%22%3E%3CmxGeometry%20x%3D%2270%22%20y%3D%22210%22%20width%3D%2250%22%20height%3D%2220%22%20as%3D%22geometry%22%2F%3E%3C%2FmxCell%3E%3C%2Froot%3E%3C%2FmxGraphModel%3E&lt;/span&gt;" style="rounded=0;whiteSpace=wrap;html=1;" vertex="1" parent="1">
          <mxGeometry x="310" y="525" width="50" height="20" as="geometry" />
        </mxCell>
        <mxCell id="-zpiWiMWNnFgHcxVn4J2-295" style="edgeStyle=orthogonalEdgeStyle;rounded=0;orthogonalLoop=1;jettySize=auto;html=1;exitX=0.5;exitY=0;exitDx=0;exitDy=0;fontFamily=Times New Roman;fontSize=11;startArrow=classicThin;startFill=1;endArrow=none;endFill=0;" edge="1" parent="1" source="-zpiWiMWNnFgHcxVn4J2-296">
          <mxGeometry relative="1" as="geometry">
            <mxPoint x="395" y="500" as="targetPoint" />
          </mxGeometry>
        </mxCell>
        <mxCell id="-zpiWiMWNnFgHcxVn4J2-296" value="&lt;font style=&quot;font-size: 11px;&quot; face=&quot;Times New Roman&quot;&gt;Credit_Limit&lt;/font&gt;" style="rounded=0;whiteSpace=wrap;html=1;" vertex="1" parent="1">
          <mxGeometry x="360" y="525" width="70" height="20" as="geometry" />
        </mxCell>
        <mxCell id="-zpiWiMWNnFgHcxVn4J2-297" style="edgeStyle=orthogonalEdgeStyle;rounded=0;orthogonalLoop=1;jettySize=auto;html=1;exitX=0.5;exitY=0;exitDx=0;exitDy=0;fontFamily=Times New Roman;fontSize=11;startArrow=none;startFill=0;endArrow=none;endFill=0;" edge="1" parent="1" source="-zpiWiMWNnFgHcxVn4J2-299">
          <mxGeometry relative="1" as="geometry">
            <mxPoint x="455" y="500" as="targetPoint" />
          </mxGeometry>
        </mxCell>
        <mxCell id="-zpiWiMWNnFgHcxVn4J2-298" style="edgeStyle=orthogonalEdgeStyle;rounded=0;orthogonalLoop=1;jettySize=auto;html=1;exitX=0.5;exitY=1;exitDx=0;exitDy=0;entryX=0.5;entryY=1;entryDx=0;entryDy=0;fontFamily=Times New Roman;fontSize=11;startArrow=none;startFill=0;endArrow=classicThin;endFill=1;" edge="1" parent="1" source="-zpiWiMWNnFgHcxVn4J2-299" target="-zpiWiMWNnFgHcxVn4J2-304">
          <mxGeometry relative="1" as="geometry">
            <Array as="points">
              <mxPoint x="455" y="570" />
              <mxPoint x="555" y="570" />
            </Array>
          </mxGeometry>
        </mxCell>
        <mxCell id="-zpiWiMWNnFgHcxVn4J2-299" value="&lt;font style=&quot;font-size: 11px;&quot; face=&quot;Times New Roman&quot;&gt;&lt;u&gt;RepID&lt;/u&gt;&lt;/font&gt;" style="rounded=0;whiteSpace=wrap;html=1;" vertex="1" parent="1">
          <mxGeometry x="430" y="525" width="50" height="20" as="geometry" />
        </mxCell>
        <mxCell id="-zpiWiMWNnFgHcxVn4J2-300" style="edgeStyle=orthogonalEdgeStyle;rounded=0;orthogonalLoop=1;jettySize=auto;html=1;exitX=0.5;exitY=0;exitDx=0;exitDy=0;fontFamily=Times New Roman;fontSize=11;startArrow=classicThin;startFill=1;endArrow=none;endFill=0;" edge="1" parent="1" source="-zpiWiMWNnFgHcxVn4J2-302">
          <mxGeometry relative="1" as="geometry">
            <mxPoint x="505.28571428571445" y="500" as="targetPoint" />
          </mxGeometry>
        </mxCell>
        <mxCell id="-zpiWiMWNnFgHcxVn4J2-301" style="edgeStyle=orthogonalEdgeStyle;rounded=0;orthogonalLoop=1;jettySize=auto;html=1;exitX=0.5;exitY=1;exitDx=0;exitDy=0;fontFamily=Times New Roman;fontSize=11;startArrow=classicThin;startFill=1;endArrow=none;endFill=0;" edge="1" parent="1" source="-zpiWiMWNnFgHcxVn4J2-302">
          <mxGeometry relative="1" as="geometry">
            <mxPoint x="505.15151515151524" y="570" as="targetPoint" />
          </mxGeometry>
        </mxCell>
        <mxCell id="-zpiWiMWNnFgHcxVn4J2-302" value="&lt;font style=&quot;font-size: 11px;&quot; face=&quot;Times New Roman&quot;&gt;FName&lt;/font&gt;" style="rounded=0;whiteSpace=wrap;html=1;" vertex="1" parent="1">
          <mxGeometry x="480" y="525" width="50" height="20" as="geometry" />
        </mxCell>
        <mxCell id="-zpiWiMWNnFgHcxVn4J2-303" style="edgeStyle=orthogonalEdgeStyle;rounded=0;orthogonalLoop=1;jettySize=auto;html=1;exitX=0.5;exitY=0;exitDx=0;exitDy=0;fontFamily=Times New Roman;fontSize=11;startArrow=classicThin;startFill=1;endArrow=none;endFill=0;" edge="1" parent="1" source="-zpiWiMWNnFgHcxVn4J2-304">
          <mxGeometry relative="1" as="geometry">
            <mxPoint x="555.4761904761901" y="500" as="targetPoint" />
          </mxGeometry>
        </mxCell>
        <mxCell id="-zpiWiMWNnFgHcxVn4J2-304" value="&lt;font style=&quot;font-size: 11px;&quot; face=&quot;Times New Roman&quot;&gt;LName&lt;/font&gt;" style="rounded=0;whiteSpace=wrap;html=1;" vertex="1" parent="1">
          <mxGeometry x="530" y="525" width="50" height="20" as="geometry" />
        </mxCell>
        <mxCell id="-zpiWiMWNnFgHcxVn4J2-305" style="edgeStyle=orthogonalEdgeStyle;rounded=0;orthogonalLoop=1;jettySize=auto;html=1;exitX=0.5;exitY=0;exitDx=0;exitDy=0;fontFamily=Times New Roman;fontSize=11;startArrow=none;startFill=0;endArrow=none;endFill=0;" edge="1" parent="1" source="-zpiWiMWNnFgHcxVn4J2-307">
          <mxGeometry relative="1" as="geometry">
            <mxPoint x="604.9767441860467" y="500" as="targetPoint" />
          </mxGeometry>
        </mxCell>
        <mxCell id="-zpiWiMWNnFgHcxVn4J2-306" style="edgeStyle=orthogonalEdgeStyle;rounded=0;orthogonalLoop=1;jettySize=auto;html=1;exitX=0.5;exitY=1;exitDx=0;exitDy=0;entryX=0.5;entryY=1;entryDx=0;entryDy=0;fontFamily=Times New Roman;fontSize=11;startArrow=none;startFill=0;endArrow=classicThin;endFill=1;" edge="1" parent="1" source="-zpiWiMWNnFgHcxVn4J2-307" target="-zpiWiMWNnFgHcxVn4J2-315">
          <mxGeometry relative="1" as="geometry">
            <Array as="points">
              <mxPoint x="605" y="570" />
              <mxPoint x="740" y="570" />
            </Array>
          </mxGeometry>
        </mxCell>
        <mxCell id="-zpiWiMWNnFgHcxVn4J2-307" value="&lt;font style=&quot;font-size: 11px;&quot; face=&quot;Times New Roman&quot;&gt;&lt;u&gt;Item#&lt;/u&gt;&lt;/font&gt;" style="rounded=0;whiteSpace=wrap;html=1;" vertex="1" parent="1">
          <mxGeometry x="580" y="525" width="50" height="20" as="geometry" />
        </mxCell>
        <mxCell id="-zpiWiMWNnFgHcxVn4J2-308" style="edgeStyle=orthogonalEdgeStyle;rounded=0;orthogonalLoop=1;jettySize=auto;html=1;exitX=0.5;exitY=0;exitDx=0;exitDy=0;fontFamily=Times New Roman;fontSize=11;startArrow=classicThin;startFill=1;endArrow=none;endFill=0;" edge="1" parent="1" source="-zpiWiMWNnFgHcxVn4J2-310">
          <mxGeometry relative="1" as="geometry">
            <mxPoint x="655.2093023255816" y="500" as="targetPoint" />
          </mxGeometry>
        </mxCell>
        <mxCell id="-zpiWiMWNnFgHcxVn4J2-309" style="edgeStyle=orthogonalEdgeStyle;rounded=0;orthogonalLoop=1;jettySize=auto;html=1;exitX=0.5;exitY=1;exitDx=0;exitDy=0;fontFamily=Times New Roman;fontSize=11;startArrow=classicThin;startFill=1;endArrow=none;endFill=0;" edge="1" parent="1" source="-zpiWiMWNnFgHcxVn4J2-310">
          <mxGeometry relative="1" as="geometry">
            <mxPoint x="655.1111111111113" y="570" as="targetPoint" />
          </mxGeometry>
        </mxCell>
        <mxCell id="-zpiWiMWNnFgHcxVn4J2-310" value="&lt;font style=&quot;font-size: 11px;&quot; face=&quot;Times New Roman&quot;&gt;Name&lt;/font&gt;" style="rounded=0;whiteSpace=wrap;html=1;" vertex="1" parent="1">
          <mxGeometry x="630" y="525" width="50" height="20" as="geometry" />
        </mxCell>
        <mxCell id="-zpiWiMWNnFgHcxVn4J2-311" style="edgeStyle=orthogonalEdgeStyle;rounded=0;orthogonalLoop=1;jettySize=auto;html=1;exitX=0.5;exitY=0;exitDx=0;exitDy=0;fontFamily=Times New Roman;fontSize=11;startArrow=classicThin;startFill=1;endArrow=none;endFill=0;" edge="1" parent="1" source="-zpiWiMWNnFgHcxVn4J2-313">
          <mxGeometry relative="1" as="geometry">
            <mxPoint x="700.4000000000001" y="500" as="targetPoint" />
          </mxGeometry>
        </mxCell>
        <mxCell id="-zpiWiMWNnFgHcxVn4J2-312" style="edgeStyle=orthogonalEdgeStyle;rounded=0;orthogonalLoop=1;jettySize=auto;html=1;exitX=0.5;exitY=1;exitDx=0;exitDy=0;fontFamily=Times New Roman;fontSize=11;startArrow=classicThin;startFill=1;endArrow=none;endFill=0;" edge="1" parent="1" source="-zpiWiMWNnFgHcxVn4J2-313">
          <mxGeometry relative="1" as="geometry">
            <mxPoint x="700.1111111111113" y="570" as="targetPoint" />
          </mxGeometry>
        </mxCell>
        <mxCell id="-zpiWiMWNnFgHcxVn4J2-313" value="&lt;font style=&quot;font-size: 11px;&quot; face=&quot;Times New Roman&quot;&gt;Class&lt;/font&gt;" style="rounded=0;whiteSpace=wrap;html=1;" vertex="1" parent="1">
          <mxGeometry x="680" y="525" width="40" height="20" as="geometry" />
        </mxCell>
        <mxCell id="-zpiWiMWNnFgHcxVn4J2-314" style="edgeStyle=orthogonalEdgeStyle;rounded=0;orthogonalLoop=1;jettySize=auto;html=1;exitX=0.5;exitY=0;exitDx=0;exitDy=0;fontFamily=Times New Roman;fontSize=11;startArrow=classicThin;startFill=1;endArrow=none;endFill=0;" edge="1" parent="1" source="-zpiWiMWNnFgHcxVn4J2-315">
          <mxGeometry relative="1" as="geometry">
            <mxPoint x="739.8461538461538" y="500" as="targetPoint" />
          </mxGeometry>
        </mxCell>
        <mxCell id="-zpiWiMWNnFgHcxVn4J2-315" value="&lt;font style=&quot;font-size: 11px;&quot; face=&quot;Times New Roman&quot;&gt;Price&lt;/font&gt;" style="rounded=0;whiteSpace=wrap;html=1;" vertex="1" parent="1">
          <mxGeometry x="720" y="525" width="40" height="20" as="geometry" />
        </mxCell>
        <mxCell id="-zpiWiMWNnFgHcxVn4J2-316" style="edgeStyle=orthogonalEdgeStyle;rounded=0;orthogonalLoop=1;jettySize=auto;html=1;exitX=0.5;exitY=0;exitDx=0;exitDy=0;fontFamily=Times New Roman;fontSize=11;startArrow=classicThin;startFill=1;endArrow=none;endFill=0;" edge="1" parent="1" source="-zpiWiMWNnFgHcxVn4J2-317">
          <mxGeometry relative="1" as="geometry">
            <mxPoint x="800.4000000000001" y="500" as="targetPoint" />
          </mxGeometry>
        </mxCell>
        <mxCell id="-zpiWiMWNnFgHcxVn4J2-317" value="&lt;font style=&quot;font-size: 11px;&quot; face=&quot;Times New Roman&quot;&gt;Num_Ordered&lt;/font&gt;" style="rounded=0;whiteSpace=wrap;html=1;" vertex="1" parent="1">
          <mxGeometry x="760" y="525" width="80" height="20" as="geometry" />
        </mxCell>
        <mxCell id="-zpiWiMWNnFgHcxVn4J2-318" value="&lt;font style=&quot;font-size: 11px;&quot; face=&quot;Times New Roman&quot;&gt;Quoted_Price&lt;/font&gt;" style="rounded=0;whiteSpace=wrap;html=1;" vertex="1" parent="1">
          <mxGeometry x="840" y="525" width="80" height="20" as="geometry" />
        </mxCell>
        <mxCell id="-zpiWiMWNnFgHcxVn4J2-330" value="Partial Dependency" style="text;html=1;resizable=0;autosize=1;align=center;verticalAlign=middle;points=[];fillColor=none;strokeColor=none;rounded=0;fontFamily=Times New Roman;fontSize=11;" vertex="1" parent="1">
          <mxGeometry x="20" y="110" width="120" height="30" as="geometry" />
        </mxCell>
        <mxCell id="-zpiWiMWNnFgHcxVn4J2-331" value="PK Dependency" style="text;html=1;resizable=0;autosize=1;align=center;verticalAlign=middle;points=[];fillColor=none;strokeColor=none;rounded=0;fontFamily=Times New Roman;fontSize=11;" vertex="1" parent="1">
          <mxGeometry x="50" y="9" width="100" height="30" as="geometry" />
        </mxCell>
        <mxCell id="-zpiWiMWNnFgHcxVn4J2-341" style="edgeStyle=orthogonalEdgeStyle;rounded=0;orthogonalLoop=1;jettySize=auto;html=1;exitX=0.5;exitY=1;exitDx=0;exitDy=0;entryX=0.5;entryY=1;entryDx=0;entryDy=0;fontFamily=Times New Roman;fontSize=11;startArrow=classicThin;startFill=1;endArrow=classicThin;endFill=1;" edge="1" parent="1">
          <mxGeometry relative="1" as="geometry">
            <mxPoint x="145" y="139" as="sourcePoint" />
            <mxPoint x="555" y="139" as="targetPoint" />
            <Array as="points">
              <mxPoint x="145" y="164" />
              <mxPoint x="555" y="164" />
            </Array>
          </mxGeometry>
        </mxCell>
        <mxCell id="-zpiWiMWNnFgHcxVn4J2-342" style="edgeStyle=orthogonalEdgeStyle;rounded=0;orthogonalLoop=1;jettySize=auto;html=1;exitX=0.5;exitY=1;exitDx=0;exitDy=0;fontFamily=Times New Roman;fontSize=11;startArrow=classicThin;startFill=1;endArrow=none;endFill=0;" edge="1" parent="1">
          <mxGeometry relative="1" as="geometry">
            <mxPoint x="204.8888888888889" y="164" as="targetPoint" />
            <mxPoint x="205" y="139" as="sourcePoint" />
          </mxGeometry>
        </mxCell>
        <mxCell id="-zpiWiMWNnFgHcxVn4J2-343" style="edgeStyle=orthogonalEdgeStyle;rounded=0;orthogonalLoop=1;jettySize=auto;html=1;exitX=0.5;exitY=1;exitDx=0;exitDy=0;fontFamily=Times New Roman;fontSize=11;startArrow=none;startFill=0;endArrow=none;endFill=0;" edge="1" parent="1">
          <mxGeometry relative="1" as="geometry">
            <mxPoint x="275.1111111111111" y="164" as="targetPoint" />
            <mxPoint x="275" y="139" as="sourcePoint" />
          </mxGeometry>
        </mxCell>
        <mxCell id="-zpiWiMWNnFgHcxVn4J2-344" style="edgeStyle=orthogonalEdgeStyle;rounded=0;orthogonalLoop=1;jettySize=auto;html=1;exitX=0.5;exitY=1;exitDx=0;exitDy=0;fontFamily=Times New Roman;fontSize=11;startArrow=classicThin;startFill=1;endArrow=none;endFill=0;" edge="1" parent="1">
          <mxGeometry relative="1" as="geometry">
            <mxPoint x="335.1111111111111" y="164" as="targetPoint" />
            <mxPoint x="335" y="139" as="sourcePoint" />
          </mxGeometry>
        </mxCell>
        <mxCell id="-zpiWiMWNnFgHcxVn4J2-345" style="edgeStyle=orthogonalEdgeStyle;rounded=0;orthogonalLoop=1;jettySize=auto;html=1;exitX=0.5;exitY=1;exitDx=0;exitDy=0;fontFamily=Times New Roman;fontSize=11;startArrow=classicThin;startFill=1;endArrow=none;endFill=0;" edge="1" parent="1">
          <mxGeometry relative="1" as="geometry">
            <mxPoint x="394.7096774193549" y="164" as="targetPoint" />
            <mxPoint x="395" y="139" as="sourcePoint" />
          </mxGeometry>
        </mxCell>
        <mxCell id="-zpiWiMWNnFgHcxVn4J2-346" style="edgeStyle=orthogonalEdgeStyle;rounded=0;orthogonalLoop=1;jettySize=auto;html=1;exitX=0.5;exitY=1;exitDx=0;exitDy=0;fontFamily=Times New Roman;fontSize=11;startArrow=classicThin;startFill=1;endArrow=none;endFill=0;" edge="1" parent="1">
          <mxGeometry relative="1" as="geometry">
            <mxPoint x="454.7096774193549" y="164" as="targetPoint" />
            <mxPoint x="455" y="139" as="sourcePoint" />
          </mxGeometry>
        </mxCell>
        <mxCell id="-zpiWiMWNnFgHcxVn4J2-347" style="edgeStyle=orthogonalEdgeStyle;rounded=0;orthogonalLoop=1;jettySize=auto;html=1;exitX=0.5;exitY=1;exitDx=0;exitDy=0;fontFamily=Times New Roman;fontSize=11;startArrow=classicThin;startFill=1;endArrow=none;endFill=0;" edge="1" parent="1">
          <mxGeometry relative="1" as="geometry">
            <mxPoint x="505.0322580645161" y="164" as="targetPoint" />
            <mxPoint x="505" y="139" as="sourcePoint" />
          </mxGeometry>
        </mxCell>
        <mxCell id="-zpiWiMWNnFgHcxVn4J2-348" value="“Other” Dependency" style="text;html=1;resizable=0;autosize=1;align=center;verticalAlign=middle;points=[];fillColor=none;strokeColor=none;rounded=0;fontFamily=Times New Roman;fontSize=11;" vertex="1" parent="1">
          <mxGeometry x="140" y="160" width="120" height="30" as="geometry" />
        </mxCell>
        <mxCell id="-zpiWiMWNnFgHcxVn4J2-351" style="edgeStyle=orthogonalEdgeStyle;rounded=0;orthogonalLoop=1;jettySize=auto;html=1;exitX=0.5;exitY=1;exitDx=0;exitDy=0;entryX=0.5;entryY=1;entryDx=0;entryDy=0;fontFamily=Times New Roman;fontSize=11;startArrow=none;startFill=0;endArrow=classicThin;endFill=1;" edge="1" parent="1">
          <mxGeometry relative="1" as="geometry">
            <mxPoint x="455" y="172.95" as="sourcePoint" />
            <mxPoint x="555" y="172.95" as="targetPoint" />
            <Array as="points">
              <mxPoint x="455" y="198.95" />
              <mxPoint x="555" y="198.95" />
            </Array>
          </mxGeometry>
        </mxCell>
        <mxCell id="-zpiWiMWNnFgHcxVn4J2-352" style="edgeStyle=orthogonalEdgeStyle;rounded=0;orthogonalLoop=1;jettySize=auto;html=1;exitX=0.5;exitY=1;exitDx=0;exitDy=0;fontFamily=Times New Roman;fontSize=11;startArrow=classicThin;startFill=1;endArrow=none;endFill=0;" edge="1" parent="1">
          <mxGeometry relative="1" as="geometry">
            <mxPoint x="504.7777777777778" y="198.95" as="targetPoint" />
            <mxPoint x="505" y="172.95" as="sourcePoint" />
          </mxGeometry>
        </mxCell>
        <mxCell id="-zpiWiMWNnFgHcxVn4J2-353" value="Transitive Dependency" style="text;html=1;resizable=0;autosize=1;align=center;verticalAlign=middle;points=[];fillColor=none;strokeColor=none;rounded=0;fontFamily=Times New Roman;fontSize=11;" vertex="1" parent="1">
          <mxGeometry x="440" y="190" width="130" height="30" as="geometry" />
        </mxCell>
      </root>
    </mxGraphModel>
  </diagram>
</mxfile>
